<svg xmlns="http://www.w3.org/2000/svg" viewBox="0 0 200 200" width="100%" height="100%">
  <defs>
    <radialGradient id="drop-shadow" cx="50%" cy="50%" r="50%">
      <stop offset="0%" stop-color="#000000" stop-opacity="0.25" />
      <stop offset="100%" stop-color="#000000" stop-opacity="0" />
    </radialGradient>
    <radialGradient id="body-grad" cx="40%" cy="40%" r="60%">
      <stop offset="0%" stop-color="#ff5c5c" />
      <stop offset="70%" stop-color="#dd1a1a" />
      <stop offset="100%" stop-color="#990000" />
    </radialGradient>
    <radialGradient id="tentacle-grad" cx="50%" cy="30%" r="70%">
      <stop offset="0%" stop-color="#ff4d4d" />
      <stop offset="100%" stop-color="#aa0808" />
    </radialGradient>
    <radialGradient id="eye-grad" cx="35%" cy="35%" r="65%">
      <stop offset="0%" stop-color="#2a2a2a" />
      <stop offset="100%" stop-color="#050505" />
    </radialGradient>
  </defs>

  <!-- Ground Shadow -->
  <ellipse cx="100" cy="175" rx="65" ry="12" fill="url(#drop-shadow)" />

  <!-- Tentacles (3 base tentacles, the 4th is holding the glass) -->
  <g id="tentacles">
    <circle cx="54" cy="154" r="16" fill="url(#tentacle-grad)" />
    <circle cx="84" cy="164" r="17" fill="url(#tentacle-grad)" />
    <circle cx="116" cy="164" r="17" fill="url(#tentacle-grad)" />
  </g>

  <!-- Main Round Body -->
  <circle cx="100" cy="105" r="62" fill="url(#body-grad)" />

  <!-- Eyes (Curious: Left eye squinting/happy, Right eye magnified) -->
  <g id="eyes">
    <!-- Left Eye (Happy closed arch) -->
    <path d="M 68 103 Q 76 93 84 103" stroke="#1a1a1a" stroke-width="4" stroke-linecap="round" fill="none" />

    <!-- Right Eye (Magnified under magnifying glass lens) -->
    <circle cx="124" cy="100" r="14" fill="url(#eye-grad)" />
    <circle cx="120" cy="96" r="4.8" fill="#ffffff" />
    <circle cx="128" cy="103" r="2.0" fill="#ffffff" />
  </g>

  <!-- Mouth (Asymmetric cute smirk) -->
  <path d="M 94 118 Q 100 122 105 116" stroke="#1a1a1a" stroke-width="3" stroke-linecap="round" fill="none" />

  <!-- Magnifying Glass & Holding Tentacle -->
  <g id="magnifying-glass" transform="translate(10, 0)">
    <!-- Handle -->
    <rect x="110" y="115" width="8" height="30" rx="3" fill="#78350f" stroke="#451a03" stroke-width="1.5" transform="rotate(-35, 114, 130)" />
    <!-- Metallic rim -->
    <circle cx="114" cy="100" r="20" fill="none" stroke="#94a3b8" stroke-width="4.5" filter="drop-shadow(0px 2px 4px rgba(0,0,0,0.15))" />
    <!-- Outer highlight rim -->
    <circle cx="114" cy="100" r="20" fill="none" stroke="#cbd5e1" stroke-width="1.5" />
    <!-- Glass lens overlay (semi-transparent cyan glow) -->
    <circle cx="114" cy="100" r="18" fill="#06b6d4" fill-opacity="0.1" />
    <!-- Lens reflection -->
    <path d="M 102 90 A 18 18 0 0 1 126 90" fill="none" stroke="#ffffff" stroke-width="2.5" stroke-linecap="round" opacity="0.6" />
  </g>

  <!-- Holding tentacle curving up to hold magnifying glass -->
  <path d="M 125 155 Q 140 145, 132 122 Q 128 116, 122 120 C 118 124, 122 135, 124 155 Z" fill="url(#tentacle-grad)" />
</svg>
